<?xml version="1.0" encoding="UTF-8" standalone="no"?>
<svg
   width="40.000mm"
   height="25.000mm"
   viewBox="-56.389061 60.231895 40.000000 25.000000"
   version="1.1"
   id="svg30945"
   sodipodi:docname="portachiavi-esc-24lb-r02.svg"
   inkscape:version="1.2.2 (b0a8486541, 2022-12-01)"
   xmlns:inkscape="http://www.inkscape.org/namespaces/inkscape"
   xmlns:sodipodi="http://sodipodi.sourceforge.net/DTD/sodipodi-0.dtd"
   xmlns="http://www.w3.org/2000/svg"
   xmlns:svg="http://www.w3.org/2000/svg">
  <defs
     id="defs30949" />
  <sodipodi:namedview
     id="namedview30947"
     pagecolor="#ffffff"
     bordercolor="#666666"
     borderopacity="1.0"
     inkscape:pageshadow="2"
     inkscape:pageopacity="0.0"
     inkscape:pagecheckerboard="0"
     inkscape:document-units="mm"
     showgrid="false"
     inkscape:zoom="4.2650833"
     inkscape:cx="57.443192"
     inkscape:cy="60.256736"
     inkscape:window-width="1920"
     inkscape:window-height="1008"
     inkscape:window-x="0"
     inkscape:window-y="0"
     inkscape:window-maximized="1"
     inkscape:current-layer="svg30945"
     inkscape:showpageshadow="2"
     inkscape:deskcolor="#d1d1d1" />
  <g
     id="g30964"
     transform="matrix(0.77036949,0,0,0.77036949,-7.4505013,17.269019)">
    <ellipse
       style="fill:none;stroke:#000000;stroke-width:0.0499998mm"
       rx="19.999975"
       ry="12.499985"
       cx="-36.389061"
       cy="72.731895"
       id="ellipse30919" />
    <path
       transform="matrix(-1,0,0,1,-65.180405,39.777992)"
       style="fill:none;stroke:#4a6fe3;stroke-width:0.05mm"
       d="m -24.031197,39.845112 c 0.124569,-0.05605 2.502253,-1.176197 5.283741,-2.489205 l 5.057252,-2.387287 0.127808,-0.250416 c 0.07029,-0.137729 0.128488,-0.27523 0.129322,-0.305549 0.0037,-0.134537 -1.035357,-5.055557 -1.090137,-5.162935 -0.04566,-0.08951 -4.507877,-5.100483 -4.960716,-5.570782 -0.07423,-0.07709 -0.152035,-0.113863 -0.356453,-0.168448 -0.255041,-0.0681 -0.265455,-0.06855 -0.421802,-0.01805 -0.08817,0.02848 -1.417313,0.475991 -2.953655,0.994477 -1.536347,0.518486 -3.234143,1.090562 -3.772883,1.271289 -1.049595,0.352095 -1.139458,0.397795 -1.207825,0.614239 -0.01611,0.05102 -0.173935,1.09158 -0.350708,2.312353 -0.227653,1.572148 -0.316774,2.266093 -0.305534,2.379034 0.01294,0.129902 0.380712,0.941288 1.984465,4.377968 1.082725,2.320183 2.001621,4.26181 2.041986,4.314728 0.16724,0.219265 0.437761,0.249401 0.795141,0.08858 z"
       id="path30921" />
    <path
       transform="matrix(-1,0,0,1,-65.180405,39.777992)"
       style="fill:none;stroke:#4a6fe3;stroke-width:0.05mm"
       d="m -23.878977,36.08749 c 0.01421,-1.417831 0.03204,-2.584087 0.03963,-2.591682 0.0076,-0.0076 0.426174,-0.174862 0.930174,-0.371712 0.504002,-0.19685 2.410236,-0.9431 4.236078,-1.658339 1.825842,-0.71524 3.326311,-1.293836 3.334379,-1.285766 0.01719,0.0172 0.852506,4.038885 0.841227,4.050165 -0.01137,0.01135 -9.397032,4.441509 -9.402571,4.438118 -0.0026,-0.0016 0.0069,-1.162956 0.02109,-2.580784 z"
       id="path30923" />
    <path
       transform="matrix(-1,0,0,1,-65.180405,39.777992)"
       style="fill:none;stroke:#4a6fe3;stroke-width:0.05mm"
       d="m -26.382643,34.098736 c -0.799455,-1.714409 -1.454132,-3.141285 -1.454836,-3.170828 -5.28e-4,-0.02955 0.08396,-0.648871 0.188149,-1.376272 0.145756,-1.017611 0.197239,-1.311863 0.223284,-1.276247 0.0186,0.02545 0.599687,1.165178 1.291265,2.532701 l 1.257412,2.486412 -0.01974,1.9683 c -0.01085,1.082562 -0.02249,1.964867 -0.02585,1.960671 -0.0034,-0.0042 -0.660214,-1.410321 -1.45967,-3.124733 z"
       id="path30925" />
    <path
       transform="matrix(-1,0,0,1,-65.180405,39.777992)"
       style="fill:none;stroke:#4a6fe3;stroke-width:0.05mm"
       d="m -25.566576,29.663445 c -0.786325,-1.553858 -1.425022,-2.829421 -1.419327,-2.834578 0.0057,-0.0052 1.552281,-0.528828 3.43685,-1.163702 2.203937,-0.742464 3.440441,-1.145065 3.465603,-1.128384 0.02152,0.01426 0.984726,1.078945 2.140472,2.365952 1.6127,1.79586 2.091367,2.346317 2.0584,2.367111 -0.06933,0.04373 -8.157256,3.213192 -8.207015,3.216129 -0.03066,0.0019 -0.507255,-0.910202 -1.474981,-2.822528 z"
       id="path30927" />
    <path
       transform="matrix(-1,0,0,1,-65.180405,39.777992)"
       style="fill:none;stroke:#4a6fe3;stroke-width:0.05mm"
       d="m -20.467588,29.864517 c 0.361885,-0.110081 0.464149,-0.346779 0.263488,-0.609863 -0.215486,-0.282522 -0.616926,-0.379179 -0.943147,-0.227089 -0.20203,0.09419 -0.238419,0.140131 -0.178618,0.22551 0.05943,0.08484 0.105396,0.08301 0.241888,-0.0096 0.210018,-0.142524 0.499714,-0.07979 0.626551,0.135668 0.07933,0.134775 0.0474,0.224228 -0.101288,0.283718 -0.06693,0.02678 -0.168968,0.04869 -0.226763,0.04869 -0.118438,0 -0.137989,0.05146 -0.04986,0.131212 0.05794,0.05243 0.23288,0.06279 0.367748,0.02175 z"
       id="path30929" />
    <path
       transform="matrix(-1,0,0,1,-65.180405,39.777992)"
       style="fill:none;stroke:#4a6fe3;stroke-width:0.05mm"
       d="m -19.256512,29.425568 c 0.129038,-0.04749 0.327942,-0.172123 0.328474,-0.205811 1.89e-4,-0.01304 -0.02158,-0.05721 -0.0484,-0.09814 -0.04718,-0.07201 -0.162616,-0.104321 -0.162616,-0.04551 0,0.05379 -0.260479,0.182463 -0.369355,0.182463 -0.16682,0 -0.16658,-0.0726 6.62e-4,-0.184761 0.178826,-0.119995 0.217701,-0.168432 0.217701,-0.271303 0,-0.168576 -0.258896,-0.297791 -0.514698,-0.256886 -0.115804,0.01852 -0.439853,0.156063 -0.465521,0.197592 -0.007,0.01135 0.01948,0.06058 0.05886,0.109438 0.06672,0.08279 0.07636,0.08585 0.141644,0.045 0.229009,-0.143313 0.418045,-0.194399 0.461164,-0.12463 0.0095,0.01532 -0.06108,0.08721 -0.156759,0.159796 -0.193001,0.146415 -0.23012,0.243482 -0.143603,0.375526 0.09871,0.150648 0.409792,0.206543 0.652447,0.11723 z"
       id="path30931" />
    <path
       transform="matrix(-1,0,0,1,-65.180405,39.777992)"
       style="fill:none;stroke:#4a6fe3;stroke-width:0.05mm"
       d="m -18.406275,29.104914 c 0.402958,-0.09493 0.576235,-0.351794 0.406866,-0.603121 -0.214737,-0.318646 -0.630005,-0.43326 -0.96401,-0.26607 -0.244465,0.122366 -0.271343,0.358836 -0.06229,0.548026 0.05694,0.05153 0.07172,0.04889 0.399466,-0.07121 0.274744,-0.100685 0.345457,-0.116831 0.36691,-0.08378 0.08901,0.137109 -0.06754,0.267368 -0.348432,0.289913 -0.110405,0.0089 -0.206978,0.02622 -0.214607,0.03856 -0.0076,0.01233 0.0141,0.05802 0.0483,0.101492 0.06708,0.08528 0.154995,0.09633 0.367796,0.04619 z"
       id="path30933" />
    <path
       transform="matrix(-1,0,0,1,-65.180405,39.777992)"
       style="fill:none;stroke:#4a6fe3;stroke-width:0.05mm"
       d="m -18.867268,28.507303 c 0,-0.103067 0.169785,-0.17926 0.317084,-0.142288 0.115404,0.02896 0.09175,0.06047 -0.09815,0.130734 -0.216844,0.08024 -0.218937,0.08035 -0.218937,0.01156 z"
       id="path30935" />
    <circle
       transform="matrix(0.264583,0,0,0.264583,-21.377357,72.731895)"
       style="fill:none;stroke:#000000;stroke-width:0.188976mm"
       r="7.5590549"
       cx="0"
       cy="0"
       id="circle30937" />
    <path
       transform="matrix(-0.270839,0,0,0.443817,-34.524948,72.747795)"
       style="fill:none;stroke:#4a6fe3;stroke-width:0.184612mm"
       d="m -2.220069,0.165939 c 0.29668,0 0.574083,-0.098055 0.832212,-0.294165 0.246395,-0.197786 0.369592,-0.426582 0.369592,-0.686386 V -3.36656 c 0,-0.234662 -0.10476,-0.456753 -0.314279,-0.666272 -0.20952,-0.172644 -0.455915,-0.258966 -0.739185,-0.258966 h -4.865044 c -0.147502,0 -0.276566,-0.049447 -0.387192,-0.14834 -0.098893,-0.073751 -0.14834,-0.190244 -0.14834,-0.349479 v -2.164756 c 0,-0.07375 0.042742,-0.141635 0.128226,-0.203653 0.075427,-0.07375 0.17432,-0.110626 0.296679,-0.110626 h 3.846779 c 0.124036,0 0.2355,0.036876 0.334394,0.110626 0.073751,0.062018 0.110626,0.129903 0.110626,0.203653 0.085484,0.20952 0.085484,0.289975 0,0.241367 -0.062018,-0.025143 -0.142473,-0.037714 -0.241367,-0.037714 -0.073751,0 -0.13493,0.031009 -0.183539,0.093027 -0.050284,0.073751 -0.075427,0.147502 -0.075427,0.221253 0,0.098893 0.055313,0.166777 0.16594,0.203653 0.075427,0.048608 0.17432,0.072913 0.29668,0.072913 h 1.775049 v -1.164091 c 0,-0.209519 -0.10476,-0.394735 -0.314279,-0.555646 -0.20952,-0.147502 -0.455915,-0.221252 -0.739185,-0.221252 h -6.084448 c -0.296679,0 -0.549779,0.07375 -0.759299,0.221252 -0.197786,0.160911 -0.296679,0.346127 -0.296679,0.555646 v 3.08748 c 0,0.209519 0.093027,0.394735 0.27908,0.555646 0.184377,0.147501 0.412334,0.221252 0.683871,0.221252 h 4.958071 c 0.159235,0 0.294165,0.049447 0.404792,0.14834 0.08716,0.073751 0.13074,0.178511 0.13074,0.314279 v 2.016417 c 0,0.08716 -0.031009,0.155044 -0.093027,0.203653 -0.073751,0.062017 -0.154206,0.093026 -0.241366,0.093026 h -4.161058 c -0.12236,0 -0.227119,-0.055313 -0.314279,-0.165939 -0.085484,-0.112303 -0.128227,-0.211196 -0.128227,-0.29668 0.085484,0.073751 0.208682,0.092189 0.369593,0.055313 0.159234,-0.073751 0.238852,-0.191082 0.238852,-0.351993 0,-0.110626 -0.048608,-0.209519 -0.145825,-0.296679 -0.075427,-0.073751 -0.174321,-0.110627 -0.29668,-0.110627 h -1.684537 v 0.980552 c 0,0.271537 0.111464,0.512066 0.334393,0.721585 0.221253,0.20952 0.49279,0.314279 0.814612,0.314279 z m -15.681281,0 h 5.289949 c 0.407307,0 0.758461,-0.129064 1.053465,-0.387192 0.28327,-0.271537 0.424905,-0.585816 0.424905,-0.942838 v -5.976335 c 0,-0.269861 -0.104759,-0.491114 -0.314278,-0.663758 -0.209521,-0.197786 -0.455916,-0.296679 -0.739186,-0.296679 h -5.880794 c -0.34529,0 -0.647835,0.110626 -0.907639,0.331878 -0.234663,0.20952 -0.351993,0.481057 -0.351993,0.814612 v 5.790282 c 0,0.357022 0.129901,0.671301 0.389707,0.942838 0.28327,0.258128 0.628559,0.387192 1.035864,0.387192 z m 1.018265,-0.849811 c -0.222927,0 -0.395573,-0.049446 -0.517931,-0.14834 -0.124037,-0.098893 -0.186054,-0.209519 -0.186054,-0.331879 v -5.531315 c 0,-0.147502 0.06202,-0.277404 0.186054,-0.389707 0.122358,-0.122359 0.269861,-0.183539 0.442505,-0.183539 h 3.34896 c 0.20952,0 0.388031,0.073751 0.535532,0.221252 0.135768,0.135769 0.203653,0.308414 0.203653,0.517933 v 5.365376 c 0,0.12236 -0.06788,0.22712 -0.203653,0.31428 -0.147501,0.110626 -0.326012,0.165939 -0.535532,0.165939 z"
       id="path30939" />
    <path
       transform="matrix(-0.270839,0,0,0.443817,-34.524948,76.908234)"
       style="fill:none;stroke:#4a6fe3;stroke-width:0.184612mm"
       d="m -2.220069,0.165939 c 0.29668,0 0.574083,-0.098055 0.832212,-0.294165 0.246395,-0.197786 0.369592,-0.426582 0.369592,-0.686386 V -3.36656 c 0,-0.234662 -0.10476,-0.456753 -0.314279,-0.666272 -0.20952,-0.172644 -0.455915,-0.258966 -0.739185,-0.258966 h -4.865044 c -0.147502,0 -0.276566,-0.049447 -0.387192,-0.14834 -0.098893,-0.073751 -0.14834,-0.190244 -0.14834,-0.349479 v -2.164756 c 0,-0.07375 0.042742,-0.141635 0.128226,-0.203653 0.075427,-0.07375 0.17432,-0.110626 0.296679,-0.110626 h 3.846779 c 0.124036,0 0.2355,0.036876 0.334394,0.110626 0.073751,0.062018 0.110626,0.129903 0.110626,0.203653 0.085484,0.20952 0.085484,0.289975 0,0.241367 -0.062018,-0.025143 -0.142473,-0.037714 -0.241367,-0.037714 -0.073751,0 -0.13493,0.031009 -0.183539,0.093027 -0.050284,0.073751 -0.075427,0.147502 -0.075427,0.221253 0,0.098893 0.055313,0.166777 0.16594,0.203653 0.075427,0.048608 0.17432,0.072913 0.29668,0.072913 h 1.775049 v -1.164091 c 0,-0.209519 -0.10476,-0.394735 -0.314279,-0.555646 -0.20952,-0.147502 -0.455915,-0.221252 -0.739185,-0.221252 h -6.084448 c -0.296679,0 -0.549779,0.07375 -0.759299,0.221252 -0.197786,0.160911 -0.296679,0.346127 -0.296679,0.555646 v 3.08748 c 0,0.209519 0.093027,0.394735 0.27908,0.555646 0.184377,0.147501 0.412334,0.221252 0.683871,0.221252 h 4.958071 c 0.159235,0 0.294165,0.049447 0.404792,0.14834 0.08716,0.073751 0.13074,0.178511 0.13074,0.314279 v 2.016417 c 0,0.08716 -0.031009,0.155044 -0.093027,0.203653 -0.073751,0.062017 -0.154206,0.093026 -0.241366,0.093026 h -4.161058 c -0.12236,0 -0.227119,-0.055313 -0.314279,-0.165939 -0.085484,-0.112303 -0.128227,-0.211196 -0.128227,-0.29668 0.085484,0.073751 0.208682,0.092189 0.369593,0.055313 0.159234,-0.073751 0.238852,-0.191082 0.238852,-0.351993 0,-0.110626 -0.048608,-0.209519 -0.145825,-0.296679 -0.075427,-0.073751 -0.174321,-0.110627 -0.29668,-0.110627 h -1.684537 v 0.980552 c 0,0.271537 0.111464,0.512066 0.334393,0.721585 0.221253,0.20952 0.49279,0.314279 0.814612,0.314279 z m -14.776156,0 c 0.284946,0 0.525474,-0.092188 0.721586,-0.276565 0.186052,-0.184378 0.279079,-0.419039 0.279079,-0.703986 V -1.75745 c 0.20952,-0.048608 0.764327,-0.072913 1.664423,-0.072913 0.591684,0 1.121349,0.06118 1.588996,0.183539 0.457591,0.124036 0.846459,0.315118 1.166605,0.573246 l 1.257117,-1.239518 c -0.283269,-1.034188 -0.795336,-1.946017 -1.536197,-2.735487 -0.739185,-0.78947 -1.626709,-1.418866 -2.662574,-1.88819 -0.455915,-0.209519 -0.813773,-0.412334 -1.073578,-0.608445 -0.258128,-0.209519 -0.399764,-0.394734 -0.424907,-0.555645 h -1.682022 v 5.714854 c -0.271537,0.147502 -0.703148,0.221253 -1.29483,0.221253 -0.160912,0 -0.29668,-0.030171 -0.407307,-0.090512 -0.08548,-0.062018 -0.128225,-0.124036 -0.128225,-0.186054 0,-0.025142 0,-0.049446 0,-0.072913 0.02347,-0.050284 0.0419,-0.087998 0.05531,-0.11314 0.01173,0 0.03604,0.025142 0.07291,0.075427 0.04861,0.062018 0.09219,0.093027 0.130741,0.093027 0.122359,0 0.220414,-0.04358 0.294165,-0.130741 0.09889,-0.073751 0.14834,-0.165939 0.14834,-0.276565 0,-0.160911 -0.05531,-0.290813 -0.165939,-0.389707 -0.09889,-0.110626 -0.228796,-0.165939 -0.389708,-0.165939 -0.221252,0 -0.399763,0.067884 -0.535532,0.203653 -0.147501,0.135768 -0.221252,0.308413 -0.221252,0.517932 v 1.201804 c 0.08549,0.098893 0.232986,0.179349 0.442507,0.241367 0.197784,0.036875 0.432447,0.055313 0.703985,0.055313 0.543074,0 0.974684,-0.055313 1.29483,-0.16594 v 0.739185 c 0,0.048609 -0.06202,0.098055 -0.186054,0.14834 -0.110626,0.048609 -0.215385,0.072913 -0.314278,0.072913 -0.01173,0.036875 -0.01173,0.055313 0,0.055313 0.06202,-0.023466 0.09303,-0.054475 0.09303,-0.093027 0,-0.085484 -0.03687,-0.159234 -0.110627,-0.221252 -0.06202,-0.073751 -0.142473,-0.110626 -0.241365,-0.110626 -0.09889,0 -0.203653,0.04358 -0.31428,0.13074 -0.04861,0.085484 -0.07291,0.183539 -0.07291,0.294165 0,0.160911 0.06788,0.284109 0.203652,0.369593 0.135769,0.098893 0.289976,0.148339 0.462619,0.148339 z m 4.865043,-2.458921 c -0.197785,-0.135769 -0.517932,-0.234662 -0.960437,-0.29668 -0.420716,-0.062017 -0.932781,-0.093026 -1.536197,-0.093026 -0.678844,0 -1.134758,0.025142 -1.367744,0.075427 V -6.43644 c 0.01173,0.011733 0.214548,0.122359 0.608445,0.331879 l 0.610959,0.27908 c 0.727452,0.357021 1.313268,0.856515 1.75745,1.498483 0.455914,0.628559 0.751755,1.319135 0.887524,2.07173 z"
       id="path30941" />
    <path
       transform="matrix(-0.24097,0.10926,0.10926,0.24097,-23.692024,81.481094)"
       style="fill:none;stroke:#4a6fe3;stroke-width:0.188976mm"
       d="m 89.181412,-44.570923 -1.582535,1.907967 -6.581741,-5.459145 2.136528,-1.729328 -1.063065,-0.881744 -2.125793,1.716388 -0.969155,1.168442 7.644806,6.340889 -1.581001,1.906113 0.981712,0.814274 4.121956,-4.969586 z m -6.294548,7.341042 -1.739289,1.766243 -6.092865,-5.999886 2.276062,-1.541069 -0.9841,-0.969086 -2.264259,1.529091 -1.065148,1.081658 7.076958,6.968967 -1.73761,1.76453 0.908798,0.894928 4.530251,-4.600448 z m -6.89692,6.778248 -1.883407,1.611688 -5.559693,-6.497026 2.399041,-1.341614 -0.897988,-1.049381 -2.386261,1.330684 -1.153412,0.987004 6.457688,7.546404 -1.881584,1.610124 0.829269,0.969078 4.905617,-4.197881 z m -7.449203,6.1662 -2.013832,1.445418 -4.98613,-6.946949 2.504593,-1.132409 -0.805344,-1.122047 -2.490932,1.122604 -1.23328,0.885178 5.791473,8.068996 -2.011883,1.444016 0.743718,1.036188 5.245338,-3.764807 z m -7.947311,5.509319 -2.129624,1.268643 -4.376327,-7.346384 2.591945,-0.914971 -0.706852,-1.186565 -2.577495,0.906366 -1.304188,0.776921 5.083172,8.532947 -2.127564,1.267413 0.65276,1.095767 5.546932,-3.30437 z m -8.387665,4.812413 -2.229943,1.082648 -3.734714,-7.69243 2.660454,-0.690885 -0.603218,-1.242456 -2.645329,0.683542 -1.365623,0.663015 4.337936,8.934887 -2.227779,1.081598 0.55706,1.147382 5.808216,-2.819919 z m -14.752659,-3.189776 c 0.729492,-0.280185 1.415012,-0.132217 2.05656,0.443901 0.641545,0.576121 1.238774,1.583958 1.79168,3.023511 0.550609,1.433574 0.78059,2.579462 0.689941,3.437663 -0.09065,0.858202 -0.500721,1.427395 -1.230213,1.707581 -0.733978,0.281908 -1.421886,0.134428 -2.063717,-0.44244 -0.641834,-0.576868 -1.238056,-1.582089 -1.788666,-3.015662 -0.552909,-1.439554 -0.783893,-2.588058 -0.692958,-3.445511 0.09094,-0.857454 0.503395,-1.427135 1.237373,-1.709043 z m -0.430615,-1.121147 c -1.171974,0.450134 -1.889267,1.257832 -2.151878,2.423092 -0.262611,1.165262 -0.05489,2.630609 0.623188,4.396042 0.67635,1.760949 1.502091,2.986356 2.477226,3.676221 0.975132,0.689864 2.048687,0.809729 3.220658,0.359595 1.171974,-0.450134 1.889641,-1.257975 2.153,-2.423523 0.263362,-1.165548 0.05687,-2.628796 -0.619481,-4.389746 -0.678073,-1.765434 -1.50505,-2.992939 -2.48093,-3.682516 -0.97588,-0.689577 -2.049808,-0.809299 -3.221783,-0.359165 z m -2.666561,11.710456 -2.381338,0.688462 -2.374931,-8.214699 2.739115,-0.229316 -0.383591,-1.326811 -2.722961,0.224647 -1.45834,0.421616 2.758522,9.541511 -2.379032,0.687795 0.354236,1.225283 6.202561,-1.793206 z m -13.997234,-5.6474 c 0.766464,-0.152306 1.416924,0.109863 1.951382,0.786512 0.534456,0.676648 0.951963,1.771227 1.252519,3.283737 0.299309,1.506227 0.331467,2.674523 0.09647,3.504887 -0.234993,0.830365 -0.73572,1.3217 -1.502184,1.474007 -0.771175,0.153244 -1.424072,-0.108851 -1.958683,-0.786284 -0.534613,-0.677434 -0.951574,-1.769264 -1.250881,-3.275491 -0.300556,-1.51251 -0.33326,-2.683555 -0.09811,-3.513134 0.235149,-0.82958 0.738312,-1.320991 1.509487,-1.474234 z m -0.234077,-1.177967 c -1.231369,0.24469 -2.075341,0.918927 -2.531918,2.022709 -0.456577,1.103784 -0.500568,2.583127 -0.131973,4.438032 0.367658,1.850194 0.973438,3.197971 1.817337,4.043331 0.843899,0.845361 1.88153,1.145696 3.1129,0.901006 1.231369,-0.24469 2.075733,-0.919005 2.533096,-2.022944 0.457361,-1.103939 0.502214,-2.581005 0.134554,-4.431198 -0.368595,-1.854906 -0.975235,-3.20496 -1.819918,-4.050165 -0.844685,-0.845203 -1.882711,-1.145461 -3.114078,-0.900771 z m -8.56651,2.539651 c 0.776652,-0.08647 1.402418,0.230146 1.877301,0.949857 0.474884,0.71971 0.797645,1.845872 0.968286,3.378484 0.169932,1.526247 0.102467,2.693036 -0.202396,3.500369 -0.304862,0.807332 -0.845619,1.254234 -1.62227,1.340707 -0.781425,0.087003 -1.409624,-0.229747 -1.884596,-0.950253 -0.474971,-0.720506 -0.797423,-1.843883 -0.967355,-3.37013 -0.170641,-1.532612 -0.103486,-2.702187 0.201465,-3.508723 0.304951,-0.806538 0.84814,-1.253307 1.629565,-1.340311 z m -0.132898,-1.193624 c -1.247734,0.138923 -2.146066,0.738827 -2.694996,1.79971 -0.548929,1.060885 -0.718759,2.531107 -0.509489,4.410665 0.208738,1.874786 0.697522,3.26926 1.466353,4.183426 0.768832,0.914165 1.777114,1.301786 3.024848,1.162863 1.247735,-0.138922 2.146466,-0.73887 2.69619,-1.799843 0.549726,-1.060973 0.720219,-2.528851 0.511481,-4.403636 -0.20927,-1.879559 -0.698717,-3.276377 -1.468345,-4.190454 -0.769627,-0.914075 -1.778307,-1.301653 -3.026042,-1.162731 z m -8.751681,1.800795 c 0.781194,-0.02001 1.37772,0.348757 1.789578,1.106298 0.411859,0.757542 0.63753,1.907102 0.677015,3.448679 0.039321,1.535174 -0.127277,2.691978 -0.499794,3.470411 C 4.267813,-1.438892 3.690957,-1.039671 2.909763,-1.019662 2.123767,-0.99953 1.524829,-1.368635 1.11295,-2.126977 0.701072,-2.885319 0.475472,-4.032077 0.436151,-5.567252 0.396666,-7.108829 0.563193,-8.268435 0.93573,-9.046066 1.308267,-9.8237 1.887534,-10.222581 2.67353,-10.242713 Z m -0.030751,-1.200605 c -1.255033,0.03214 -2.201196,0.553356 -2.838488,1.56363 -0.637293,1.010277 -0.931727,2.460692 -0.883303,4.351245 0.0483,1.885751 0.416538,3.31679 1.104714,4.293116 0.688176,0.976326 1.65978,1.448416 2.914813,1.41627 C 4.195548,0.148798 5.14211,-0.372423 5.780204,-1.382719 6.418296,-2.393016 6.713193,-3.841039 6.664892,-5.72679 6.616469,-7.617343 6.247769,-9.050773 5.558793,-10.02708 4.869816,-11.003384 3.897811,-11.475464 2.642779,-11.443318 Z"
       id="path30943" />
  </g>
</svg>
